<svg width="48" height="32" viewBox="0 0 48 32" fill="none" xmlns="http://www.w3.org/2000/svg">
<path d="M2.66668 32C1.91112 32 1.27734 31.744 0.765342 31.232C0.253342 30.72 -0.00176855 30.0871 9.22723e-06 29.3333C9.22723e-06 28.5778 0.25601 27.944 0.768009 27.432C1.28001 26.92 1.9129 26.6649 2.66668 26.6667H45.3333C46.0889 26.6667 46.7227 26.9227 47.2347 27.4347C47.7467 27.9467 48.0018 28.5796 48 29.3333C48 30.0889 47.744 30.7227 47.232 31.2347C46.72 31.7467 46.0871 32.0018 45.3333 32H2.66668ZM2.66668 18.6667C1.91112 18.6667 1.27734 18.4107 0.765342 17.8987C0.253342 17.3867 -0.00176855 16.7538 9.22723e-06 16C9.22723e-06 15.2445 0.25601 14.6107 0.768009 14.0987C1.28001 13.5867 1.9129 13.3316 2.66668 13.3333H45.3333C46.0889 13.3333 46.7227 13.5893 47.2347 14.1013C47.7467 14.6133 48.0018 15.2462 48 16C48 16.7556 47.744 17.3893 47.232 17.9013C46.72 18.4133 46.0871 18.6685 45.3333 18.6667H2.66668ZM2.66668 5.33334C1.91112 5.33334 1.27734 5.07734 0.765342 4.56534C0.253342 4.05334 -0.00176855 3.42045 9.22723e-06 2.66668C9.22723e-06 1.91112 0.25601 1.27734 0.768009 0.765343C1.28001 0.253343 1.9129 -0.00176855 2.66668 9.2272e-06H45.3333C46.0889 9.2272e-06 46.7227 0.25601 47.2347 0.76801C47.7467 1.28001 48.0018 1.9129 48 2.66668C48 3.42223 47.744 4.05601 47.232 4.56801C46.72 5.08001 46.0871 5.33512 45.3333 5.33334H2.66668Z" fill="#1E3C5C"/>
</svg>
