<svg width="48" height="48" viewBox="0 0 48 48" fill="none" xmlns="http://www.w3.org/2000/svg">
<path d="M9.65333 20.7733C13.4933 28.32 19.68 34.48 27.2267 38.3467L33.0933 32.48C33.8133 31.76 34.88 31.52 35.8133 31.84C38.8 32.8267 42.0267 33.36 45.3333 33.36C46.8 33.36 48 34.56 48 36.0267V45.3333C48 46.8 46.8 48 45.3333 48C20.2933 48 0 27.7067 0 2.66667C0 1.2 1.2 0 2.66667 0H12C13.4667 0 14.6667 1.2 14.6667 2.66667C14.6667 6 15.2 9.2 16.1867 12.1867C16.48 13.12 16.2667 14.16 15.52 14.9067L9.65333 20.7733Z" fill="black"/>
</svg>
